<!DOCTYPE svg PUBLIC "-//W3C//DTD SVG 1.1//EN" "http://www.w3.org/Graphics/SVG/1.1/DTD/svg11.dtd">
<!-- Uploaded to: SVG Repo, www.svgrepo.com, Transformed by: SVG Repo Mixer Tools -->
<svg fill="#000000" height="800px" width="800px" version="1.1" xmlns="http://www.w3.org/2000/svg" viewBox="0 0 470 470" xmlns:xlink="http://www.w3.org/1999/xlink" enable-background="new 0 0 470 470" stroke="#000000" stroke-width="8.459999999999999">
<g id="SVGRepo_bgCarrier" stroke-width="0"/>
<g id="SVGRepo_tracerCarrier" stroke-linecap="round" stroke-linejoin="round" stroke="#CCCCCC" stroke-width="2.82"/>
<g id="SVGRepo_iconCarrier"> <g> <path d="m273.63,367.25h-77.26c-4.142,0-7.5,3.358-7.5,7.5s3.358,7.5 7.5,7.5h77.261c4.142,0 7.5-3.358 7.5-7.5s-3.359-7.5-7.501-7.5z"/> <path d="m404.032,190.875h-9.369v-138.375c0-28.949-23.551-52.5-52.5-52.5h-214.326c-28.949,0-52.5,23.551-52.5,52.5v138.375h-9.369c-11.304,0-20.5,9.196-20.5,20.5v50.881c0,4.142 3.358,7.5 7.5,7.5s7.5-3.358 7.5-7.5v-50.881c0-3.033 2.467-5.5 5.5-5.5h9.369v204.375c0,6.963 4.098,12.972 10,15.787v36.463c0,4.142 3.358,7.5 7.5,7.5h35.5c4.142,0 7.5-3.358 7.5-7.5v-12.25c0-4.142-3.358-7.5-7.5-7.5s-7.5,3.358-7.5,7.5v4.75h-20.5v-27.25h269.326v27.25h-20.5v-4.75c0-4.142-3.358-7.5-7.5-7.5s-7.5,3.358-7.5,7.5v12.25c0,4.142 3.358,7.5 7.5,7.5h35.5c4.142,0 7.5-3.358 7.5-7.5v-36.463c5.902-2.816 10-8.824 10-15.787v-204.375h9.369c3.033,0 5.5,2.467 5.5,5.5v50.881c0,4.142 3.358,7.5 7.5,7.5s7.5-3.358 7.5-7.5v-50.881c-5.68434e-14-11.304-9.196-20.5-20.5-20.5zm-313.695-130.875h289.326v70.875h-289.326v-70.875zm37.5-45h214.326c18.11,0 33.261,12.904 36.745,30h-287.816c3.484-17.096 18.635-30 36.745-30zm-37.5,130.875h289.326v45h-289.326v-45zm289.326,264.375c0,1.355-1.145,2.5-2.5,2.5h-284.326c-1.355,0-2.5-1.145-2.5-2.5v-204.375h137.163v115.875h-114.663c-4.142,0-7.5,3.358-7.5,7.5s3.358,7.5 7.5,7.5h244.326c4.142,0 7.5-3.358 7.5-7.5s-3.358-7.5-7.5-7.5h-114.663v-115.875h137.163v204.375z"/> <path d="m128.337,351.75c-12.682,0-23,10.318-23,23s10.318,23 23,23 23-10.318 23-23-10.318-23-23-23zm0,31c-4.411,0-8-3.589-8-8s3.589-8 8-8 8,3.589 8,8-3.589,8-8,8z"/> <path d="m341.663,351.75c-12.682,0-23,10.318-23,23s10.318,23 23,23 23-10.318 23-23-10.318-23-23-23zm0,31c-4.411,0-8-3.589-8-8s3.589-8 8-8 8,3.589 8,8-3.589,8-8,8z"/> <path d="m364.663,168.375c0-4.142-3.358-7.5-7.5-7.5h-244.326c-4.142,0-7.5,3.358-7.5,7.5s3.358,7.5 7.5,7.5h244.326c4.142,0 7.5-3.358 7.5-7.5z"/> </g> </g>
</svg>